<svg width="240" height="228" xmlns="http://www.w3.org/2000/svg" xmlns:svg="http://www.w3.org/2000/svg">
 <g>
  <title>Layer 1</title>
  <svg viewBox="0 0 165.001 157.12" height="227.65px" width="239.25px" y="0" x="1" id="svg_1" xmlns:xlink="http://www.w3.org/1999/xlink" xmlns="http://www.w3.org/2000/svg">
   <path id="svg_9" class="color c1" d="m57.358,40.977c6.529,-4.867 20.186,-13.724 30.895,-11.776c14.582,2.65 11.961,15.84 50.455,17.441c-1.432,-6.198 -3.809,-11.768 -7.214,-16.741c-13.31,-19.447 -31.848,-28.239 -53.35,-29.777c-1.969,-0.141 -3.926,-0.158 -5.871,-0.07l0,-0.01c-8.862,0.4 -17.482,3.069 -25.755,7.126c-2.225,1.09 -4.412,2.282 -6.58,3.51c-7.317,4.144 -13.054,9.369 -16.976,15.82l5.766,2.427l28.63,12.05z" fill="#CBCBCB" opacity="0.9"/>
   <path id="svg_8" class="color c2" d="m133.462,88.53c-11.319,5.839 -19.248,7.988 -34.59,1.046c-3.523,2.593 -7.857,4.145 -12.557,4.145c-4.843,0 -9.534,-1.664 -13.309,-4.706c-61.247,-8.702 -67.4,-10.143 -68.687,-10.57c-0.885,0.853 -1.736,1.736 -2.474,2.742c-0.14,0.19 -0.275,0.386 -0.406,0.585c-0.075,0.117 -0.154,0.228 -0.226,0.348c-1.968,3.215 -1.562,5.606 1.374,7.63c1.881,1.297 3.867,2.411 5.513,4.092c1.646,1.68 2.278,2.91 1.985,4.449c-0.155,0.813 -0.563,1.71 -1.227,2.808c-2.161,3.574 -2.149,3.72 1.171,6.26c0.891,0.681 1.835,1.194 0.583,2.483c-0.279,0.287 -0.494,0.573 -0.664,0.857c26.601,-4.528 52.509,-0.608 77.831,0.82c17.371,0.981 29.772,-5.143 37.889,-11.612c8.37,-6.671 12.186,-13.709 12.186,-13.709c-1.531,0.829 -2.987,1.607 -4.392,2.332z" fill="#A0A0A0" opacity="0.9"/>
   <path id="svg_6" class="color c1" d="m4.391,78.468c1.188,0.375 6.129,1.484 41.398,6.633c-17.742,12.067 -26.631,14.171 -35.609,13.19c0.292,-1.539 -0.339,-2.77 -1.985,-4.449c-1.646,-1.682 -3.632,-2.795 -5.513,-4.092c-2.937,-2.024 -3.342,-4.415 -1.375,-7.63c0.073,-0.12 0.152,-0.231 0.227,-0.347c0.132,-0.199 0.267,-0.395 0.406,-0.585c0.732,-0.998 1.575,-1.875 2.451,-2.72zm135.18,-6.343c-9.025,1.902 -19.253,1.288 -32.079,-1.128c0.034,0.489 0.075,0.976 0.075,1.473c0,3.396 -0.811,6.602 -2.237,9.448c2.553,0.396 5.339,0.619 8.434,0.582c10.011,-0.119 18.367,-2.786 24.707,-5.843c8.795,-4.242 13.703,-9.236 13.703,-9.236c-4.02,2.233 -8.168,3.77 -12.603,4.704z" fill="#CBCBCB" opacity="0.9"/>
   <path id="svg_5" class="color c2" d="m140.499,62.622c0,-0.084 -0.001,-0.167 -0.001,-0.251c-12.797,-10.397 -19.625,-12.049 -36.305,-12.733c-24.915,-1.021 -14.084,-25.179 -46.329,-27.456c-11.768,-0.83 -21.503,2.363 -29.137,6.745l39.473,16.614c4.316,-2.112 8.45,-1.303 13.682,5.759l0.644,0.271c1.274,-0.234 2.545,-0.352 3.789,-0.352c6.282,0 11.925,2.744 15.813,7.092c2.72,-1.311 6.229,-2.464 11.312,-2.413c14.541,0.145 23.613,4.635 27.059,6.724z" fill="#A0A0A0" opacity="0.9"/>
   <path id="svg_4" class="color c1" d="m87.087,93.689c-0.258,0.009 -0.512,0.031 -0.772,0.031c-3.714,0 -7.334,-0.986 -10.524,-2.814c-3.496,1.502 -5.558,5.121 -11.624,9.817c-8.82,6.828 -11.381,-1.423 -24.753,-3.13c-10.067,-1.285 -25.132,4.363 -31.964,7.234c0.241,0.719 1.06,1.381 2.582,2.545c0.892,0.682 1.835,1.193 0.583,2.484c-0.279,0.287 -0.493,0.572 -0.663,0.855c-0.75,1.256 -0.489,2.461 0.316,3.491c0.215,0.274 0.466,0.538 0.75,0.785c2.226,1.94 2.56,4.431 2.142,7.215c-0.364,2.429 -0.903,4.827 -1.357,7.241c-0.966,5.131 -0.099,8.09 3.186,9.953c2.49,-3.243 4.844,-6.711 7.354,-9.654c8.251,-9.674 14.226,-5.121 28.167,-4.836c13.941,0.283 8.819,-13.089 26.46,-17.641c17.64,-4.553 15.34,6.783 29.021,10.1c4.73,1.146 8.665,1.174 11.406,0.919c0.102,-0.402 0.208,-0.8 0.317,-1.192c-14.693,-1.065 -23.877,-16.403 -30.627,-23.403z" fill="#CBCBCB" opacity="0.9"/>
   <path id="svg_3" class="color c1" d="m121.636,151.543c-22.761,5.311 -17.4,-16.015 -40.78,-24.279c-19.584,-6.924 -30.965,5.596 -30.965,5.596l-5.833,6.354c7.278,-0.791 9.21,4.915 9.65,6.83c0.493,3.422 1.399,6.744 2.088,10.112c12.514,-7.62 15.073,-2.869 36.06,0.13c17.254,2.465 25.115,-1.101 28.153,-3.274c-0.074,-0.182 -0.148,-0.362 -0.221,-0.544l1.848,-0.925z" fill="#CBCBCB" opacity="0.9"/>
   <path id="svg_2" class="color c2" d="m123.272,139.593c-3.042,-0.618 -5.392,-2.224 -7.47,-4.231c-6.216,-6.002 -9.989,-15.588 -22.499,-13.029c-16.692,3.414 -34.521,-1.328 -44.005,-7.777c-9.484,-6.448 -19.347,0.38 -25.607,4.553c-3.128,2.086 -7.204,2.797 -10.498,2.987c-0.004,0.032 -0.008,0.063 -0.013,0.095c-0.364,2.43 -0.903,4.827 -1.357,7.24c-0.966,5.132 -0.099,8.091 3.187,9.954c0.883,0.501 1.932,0.927 3.178,1.29c6.14,1.785 12.251,0.239 18.374,-0.352c4.104,-0.396 8.145,-1.824 12.344,-0.785c2.163,0.535 3.555,1.697 4.213,3.679c1.126,-3.341 3.433,-7.108 9.834,-10.831c18.588,-10.812 17.451,9.484 53.11,13.467c0.506,0.057 1.007,0.107 1.503,0.154c34.528,3.261 47.433,-16.277 47.433,-16.277c-5.309,7.017 -29.587,12.329 -41.727,9.863z" fill="#A0A0A0" opacity="0.9"/>
  </svg>
  <g transform="rotate(14.519149780273438 80.95074462890618,91.24960327148439) " stroke="null" id="svg_7">
   <svg viewBox="0 0 101.803 49.52" height="72.5px" width="147.9px" y="55" x="7" id="svg_11" xmlns:xlink="http://www.w3.org/1999/xlink" xmlns="http://www.w3.org/2000/svg">
    <defs>
     <linearGradient y2="100%" x2="50%" y1="0%" x1="50%" gradientTransform="translate(0.5,0.5) rotate(270) translate(-0.5,-0.5)" class="linearGradient1" id="svg_17">
      <stop stop-color="#036eb8" class="linearGradientColor1" offset="0%" id="svg_20"/>
      <stop stop-color="#2ea7e0" class="linearGradientColor2" offset="100%" id="svg_19"/>
     </linearGradient>
     <pattern id="svg_18" patternUnits="userSpaceOnUse" x="0" y="0" width="100" height="100">
      <image id="svg_21" x="0" y="0" width="100" height="100"/>
     </pattern>
    </defs>
    <g stroke="null" id="svg_12">
     <g stroke="null" id="svg_15">
      <path stroke="null" id="svg_16" class="color c1" d="m79.17,9.318c-1.37,0.339 -2.654,0.836 -3.862,1.446l-68.287,-10.758c0,0 -1.761,-0.228 -2.435,2.021c-2.712,5.967 -7.184,27.697 -2.634,45.508l0.014,0.021c0.455,0.887 1.446,1.706 3.535,1.941c3.045,0.345 40.032,-3.273 69.645,-6.277c3.799,1.975 8.294,2.644 12.777,1.536c9.787,-2.417 15.761,-12.31 13.344,-22.095c-2.418,-9.787 -12.309,-15.76 -22.097,-13.343z" fill="url(#svg_17)"/>
     </g>
     <path stroke="null" id="svg_14" class="color c2" d="m80.618,15.18c6.539,-1.615 13.172,2.39 14.787,8.929c1.615,6.539 -2.391,13.172 -8.93,14.786c-6.538,1.615 -13.171,-2.39 -14.786,-8.929c-1.615,-6.539 2.391,-13.171 8.929,-14.786m-0.516,-2.089c-7.702,1.902 -12.403,9.689 -10.501,17.39c1.902,7.701 9.688,12.403 17.39,10.501c7.702,-1.902 12.405,-9.688 10.502,-17.39c-1.902,-7.7 -9.689,-12.404 -17.391,-10.501l0,0z" fill="#F4F4F4"/>
     <path stroke="null" id="svg_13" class="color c3" d="m81.081,16.47c5.689,-1.405 11.46,2.08 12.865,7.769c1.405,5.689 -2.08,11.46 -7.769,12.865s-11.459,-2.08 -12.864,-7.769c-1.405,-5.689 2.079,-11.46 7.768,-12.865m-0.449,-1.817c-6.701,1.655 -10.791,8.43 -9.136,15.13c1.655,6.701 8.429,10.792 15.13,9.137c6.701,-1.655 10.792,-8.43 9.138,-15.131c-1.656,-6.699 -8.431,-10.791 -15.132,-9.136l0,0z" fill="#AAAAAB"/>
    </g>
   </svg>
  </g>
 </g>
</svg>